<svg xmlns="http://www.w3.org/2000/svg" viewBox="0 0 64 64">
  <defs>
    <linearGradient id="bg" x1="0%" y1="0%" x2="100%" y2="100%">
      <stop offset="0%" stop-color="#1d4ed8" />
      <stop offset="55%" stop-color="#2563eb" />
      <stop offset="100%" stop-color="#06b6d4" />
    </linearGradient>
    <linearGradient id="accent" x1="0%" y1="0%" x2="100%" y2="100%">
      <stop offset="0%" stop-color="#ffffff" />
      <stop offset="100%" stop-color="#dbeafe" />
    </linearGradient>
  </defs>
  <rect width="64" height="64" rx="16" fill="url(#bg)" />
  <path d="M17 22c0-4.418 3.582-8 8-8h19v8H26c-.552 0-1 .448-1 1s.448 1 1 1h12c4.971 0 9 4.029 9 9s-4.029 9-9 9H20v-8h18c.552 0 1-.448 1-1s-.448-1-1-1H26c-4.971 0-9-4.029-9-9Z" fill="url(#accent)" />
  <circle cx="46" cy="18" r="4" fill="#93c5fd" />
</svg>
